<mxfile host="app.diagrams.net" modified="2023-12-28T14:29:07.919Z" agent="Mozilla/5.0 (Windows NT 10.0; Win64; x64) AppleWebKit/537.36 (KHTML, like Gecko) Chrome/120.0.0.0 Safari/537.36" etag="COyydmitKAKgK3FXxZsq" version="22.1.13" type="device">
  <diagram name="Page-1" id="wLxrykmkSVFndB14TcH1">
    <mxGraphModel dx="1434" dy="738" grid="1" gridSize="10" guides="1" tooltips="1" connect="1" arrows="1" fold="1" page="1" pageScale="1" pageWidth="850" pageHeight="1100" math="0" shadow="0">
      <root>
        <mxCell id="0" />
        <mxCell id="1" parent="0" />
        <mxCell id="1BwkOQverLpwgWtIQs-C-7" style="edgeStyle=none;rounded=0;orthogonalLoop=1;jettySize=auto;html=1;exitX=0.75;exitY=1;exitDx=0;exitDy=0;entryX=0.75;entryY=0;entryDx=0;entryDy=0;" parent="1" source="1BwkOQverLpwgWtIQs-C-2" target="1BwkOQverLpwgWtIQs-C-3" edge="1">
          <mxGeometry relative="1" as="geometry" />
        </mxCell>
        <mxCell id="1BwkOQverLpwgWtIQs-C-2" value="Todo list&lt;br&gt;(Next.js)" style="rounded=1;whiteSpace=wrap;html=1;" parent="1" vertex="1">
          <mxGeometry x="250" y="125" width="190" height="70" as="geometry" />
        </mxCell>
        <mxCell id="1BwkOQverLpwgWtIQs-C-6" style="edgeStyle=none;rounded=0;orthogonalLoop=1;jettySize=auto;html=1;exitX=0.25;exitY=0;exitDx=0;exitDy=0;entryX=0.25;entryY=1;entryDx=0;entryDy=0;" parent="1" source="1BwkOQverLpwgWtIQs-C-3" target="1BwkOQverLpwgWtIQs-C-2" edge="1">
          <mxGeometry relative="1" as="geometry" />
        </mxCell>
        <mxCell id="1BwkOQverLpwgWtIQs-C-3" value="Server&lt;br&gt;(Nest.js)" style="rounded=1;whiteSpace=wrap;html=1;" parent="1" vertex="1">
          <mxGeometry x="250" y="365" width="190" height="70" as="geometry" />
        </mxCell>
        <mxCell id="1BwkOQverLpwgWtIQs-C-8" value="getTodos : get all to do list&amp;nbsp;&lt;br&gt;removeTodoById : remove todo task by id&amp;nbsp;&lt;br&gt;updateTodoById : update todo task by id (task, isComplete)&lt;br&gt;addTodo : create todo task" style="text;html=1;align=left;verticalAlign=middle;resizable=0;points=[];autosize=1;strokeColor=none;fillColor=none;" parent="1" vertex="1">
          <mxGeometry x="450" y="365" width="340" height="70" as="geometry" />
        </mxCell>
        <mxCell id="1BwkOQverLpwgWtIQs-C-9" value="Show all to-do-list&lt;br&gt;Edit button&lt;br&gt;Remove button&lt;br&gt;Add todo text field&lt;br&gt;Add todo button&lt;br&gt;Checkbox todo complete" style="text;html=1;align=left;verticalAlign=middle;resizable=0;points=[];autosize=1;strokeColor=none;fillColor=none;" parent="1" vertex="1">
          <mxGeometry x="460" y="100" width="160" height="100" as="geometry" />
        </mxCell>
        <mxCell id="1BwkOQverLpwgWtIQs-C-10" value="&lt;strike&gt;All to-do-list&lt;/strike&gt;" style="text;html=1;align=left;verticalAlign=middle;resizable=0;points=[];autosize=1;strokeColor=none;fillColor=none;" parent="1" vertex="1">
          <mxGeometry x="220" y="255" width="90" height="30" as="geometry" />
        </mxCell>
        <mxCell id="1BwkOQverLpwgWtIQs-C-11" value="Request create&lt;br&gt;Request update (task,isComplete)&lt;br&gt;Request remove" style="text;html=1;align=left;verticalAlign=middle;resizable=0;points=[];autosize=1;strokeColor=none;fillColor=none;" parent="1" vertex="1">
          <mxGeometry x="400" y="240" width="200" height="60" as="geometry" />
        </mxCell>
        <mxCell id="1BwkOQverLpwgWtIQs-C-12" value="Todo model = {&lt;br&gt;&lt;span style=&quot;white-space: pre;&quot;&gt;&#x9;&lt;/span&gt;id:string&lt;br&gt;&lt;span style=&quot;white-space: pre;&quot;&gt;&#x9;&lt;/span&gt;isComplete:boolean&lt;br&gt;&lt;span style=&quot;white-space: pre;&quot;&gt;&#x9;&lt;/span&gt;task:string&lt;br&gt;}" style="text;html=1;align=left;verticalAlign=middle;resizable=0;points=[];autosize=1;strokeColor=none;fillColor=none;" parent="1" vertex="1">
          <mxGeometry x="60" y="365" width="160" height="90" as="geometry" />
        </mxCell>
        <mxCell id="1BwkOQverLpwgWtIQs-C-13" value="JSON file" style="rounded=1;whiteSpace=wrap;html=1;" parent="1" vertex="1">
          <mxGeometry x="250" y="575" width="190" height="70" as="geometry" />
        </mxCell>
        <mxCell id="1BwkOQverLpwgWtIQs-C-14" style="edgeStyle=none;rounded=0;orthogonalLoop=1;jettySize=auto;html=1;exitX=0.75;exitY=1;exitDx=0;exitDy=0;entryX=0.75;entryY=0;entryDx=0;entryDy=0;" parent="1" source="1BwkOQverLpwgWtIQs-C-3" target="1BwkOQverLpwgWtIQs-C-13" edge="1">
          <mxGeometry relative="1" as="geometry">
            <mxPoint x="399" y="455" as="sourcePoint" />
            <mxPoint x="399" y="625" as="targetPoint" />
          </mxGeometry>
        </mxCell>
        <mxCell id="1BwkOQverLpwgWtIQs-C-15" style="edgeStyle=none;rounded=0;orthogonalLoop=1;jettySize=auto;html=1;exitX=0.25;exitY=0;exitDx=0;exitDy=0;entryX=0.25;entryY=1;entryDx=0;entryDy=0;" parent="1" source="1BwkOQverLpwgWtIQs-C-13" target="1BwkOQverLpwgWtIQs-C-3" edge="1">
          <mxGeometry relative="1" as="geometry">
            <mxPoint x="264.5" y="445" as="sourcePoint" />
            <mxPoint x="264.5" y="585" as="targetPoint" />
          </mxGeometry>
        </mxCell>
      </root>
    </mxGraphModel>
  </diagram>
</mxfile>
